<svg width="40" height="40" viewBox="0 0 40 40" fill="none" xmlns="http://www.w3.org/2000/svg">
<circle cx="20" cy="20" r="20" fill="#69BE3C"/>
<path d="M10.4698 13.4037L11.3386 13.2997L10.4698 13.4037ZM12.0443 26.5648L12.9131 26.4609V26.4608L12.0443 26.5648ZM14.7793 28.9011H15.6543L14.7793 28.0261V28.9011ZM15.1031 33.0848L14.7421 33.8819H14.7421L15.1031 33.0848ZM15.6941 32.997L16.2713 33.6546L15.6941 32.997ZM20.3607 28.9011V28.0261L19.7835 28.2435L20.3607 28.9011ZM27.4279 26.5648L28.2967 26.6687L27.4279 26.5648ZM29.0024 13.4037L29.8712 13.5076L29.0024 13.4037ZM18.6894 28.9011L19.2666 29.5587L18.6894 28.0261V28.9011ZM15.8818 28.9011V28.0261L15.0068 28.9011H15.8818ZM15.8818 31.3654H15.0068L16.4589 32.023L15.8818 31.3654ZM21.4148 27.7986L20.5484 27.6761L21.4148 28.6736V27.7986ZM26.3332 26.4338L27.202 26.5378V26.5378L26.3332 26.4338ZM27.9077 13.2727L27.0389 13.1688V13.1688L27.9077 13.2727ZM11.5645 13.2727L10.6957 13.3767L11.5645 13.2727ZM13.139 26.4338L12.2702 26.5378L13.139 26.4338ZM14.7793 27.7986V28.6736L15.6543 27.7986H14.7793ZM14.9407 27.3318L14.322 26.713L14.322 26.713L14.9407 27.3318ZM21.3848 27.5273L22.2037 27.2189L22.2037 27.2189L21.3848 27.5273ZM11.3386 13.2997C11.2122 12.2426 12.0377 11.3125 13.1023 11.3125V9.5625C10.9887 9.5625 9.34995 11.409 9.60101 13.5076L11.3386 13.2997ZM12.9131 26.4608L11.3386 13.2997L9.60101 13.5076L11.1755 26.6687L12.9131 26.4608ZM14.6768 28.0261C13.7774 28.0261 13.0199 27.3539 12.9131 26.4609L11.1755 26.6687C11.3876 28.4416 12.8913 29.7761 14.6768 29.7761V28.0261ZM14.7793 28.0261H14.6768V29.7761H14.7793V28.0261ZM15.6543 32.5827V28.9011H13.9043V32.5827H15.6543ZM15.4641 32.2877C15.5799 32.3402 15.6543 32.4555 15.6543 32.5827H13.9043C13.9043 33.1427 14.232 33.6509 14.7421 33.8819L15.4641 32.2877ZM15.1169 32.3393C15.2125 32.2555 15.3482 32.2353 15.4641 32.2877L14.7421 33.8819C15.2523 34.1129 15.8504 34.024 16.2713 33.6546L15.1169 32.3393ZM19.7835 28.2435L15.1169 32.3393L16.2713 33.6546L20.9379 29.5587L19.7835 28.2435ZM24.7954 28.0261H20.3607V29.7761H24.7954V28.0261ZM26.5591 26.4608C26.4523 27.3539 25.6948 28.0261 24.7954 28.0261V29.7761C26.5809 29.7761 28.0846 28.4416 28.2967 26.6687L26.5591 26.4608ZM28.1336 13.2997L26.5591 26.4609L28.2967 26.6687L29.8712 13.5076L28.1336 13.2997ZM26.3699 11.3125C27.4345 11.3125 28.26 12.2426 28.1336 13.2997L29.8712 13.5076C30.1222 11.409 28.4835 9.5625 26.3699 9.5625V11.3125ZM13.1023 11.3125H26.3699V9.5625H13.1023V11.3125ZM18.6894 28.0261H15.8818V29.7761H18.6894V28.0261ZM16.4589 32.023L19.2666 29.5587L18.1122 28.2435L15.3046 30.7077L16.4589 32.023ZM15.0068 28.9011V31.3654H16.7568V28.9011H15.0068ZM21.4148 28.6736H24.7954V26.9236H21.4148V28.6736ZM24.7954 28.6736C26.0227 28.6736 27.0562 27.7563 27.202 26.5378L25.4644 26.3299C25.4239 26.6686 25.1366 26.9236 24.7954 26.9236V28.6736ZM27.202 26.5378L28.7765 13.3767L27.0389 13.1688L25.4644 26.3299L27.202 26.5378ZM28.7765 13.3767C28.9491 11.9342 27.8226 10.665 26.3699 10.665V12.415C26.7737 12.415 27.0868 12.7678 27.0389 13.1688L28.7765 13.3767ZM26.3699 10.665H13.1023V12.415H26.3699V10.665ZM13.1023 10.665C11.6496 10.665 10.5231 11.9342 10.6957 13.3767L12.4333 13.1688C12.3853 12.7678 12.6985 12.415 13.1023 12.415V10.665ZM10.6957 13.3767L12.2702 26.5378L14.0078 26.3299L12.4333 13.1688L10.6957 13.3767ZM12.2702 26.5378C12.416 27.7563 13.4495 28.6736 14.6768 28.6736V26.9236C14.3356 26.9236 14.0483 26.6686 14.0078 26.3299L12.2702 26.5378ZM14.6768 28.6736H14.7793V26.9236H14.6768V28.6736ZM15.6543 27.7986V27.7216H13.9043V27.7986H15.6543ZM15.6543 27.7216C15.6543 27.8074 15.6201 27.8898 15.5594 27.9505L14.322 26.713C14.0545 26.9805 13.9043 27.3433 13.9043 27.7216H15.6543ZM15.5594 27.9505C15.4987 28.0112 15.4164 28.0453 15.3305 28.0453V26.2953C14.9522 26.2953 14.5895 26.4456 14.322 26.713L15.5594 27.9505ZM15.3305 28.0453H20.869V26.2953H15.3305V28.0453ZM20.869 28.0453C20.7342 28.0453 20.6135 27.9618 20.566 27.8357L22.2037 27.2189C21.9944 26.6632 21.4628 26.2953 20.869 26.2953V28.0453ZM20.566 27.8357C20.5465 27.7839 20.541 27.7288 20.5484 27.6761L22.2812 27.9211C22.314 27.6893 22.2899 27.4477 22.2037 27.2189L20.566 27.8357Z" fill="white"/>
<path d="M12.1206 14.1138H27.3514" stroke="white" stroke-width="1.75" stroke-linecap="square" stroke-linejoin="bevel"/>
<path d="M17.313 24.6666V17.7222" stroke="white" stroke-width="1.75" stroke-linecap="square" stroke-linejoin="bevel"/>
<path d="M22.1591 24.6666V17.7222" stroke="white" stroke-width="1.75" stroke-linecap="square" stroke-linejoin="bevel"/>
<path d="M17.313 8.34722H22.1591" stroke="white" stroke-width="1.75" stroke-linecap="square" stroke-linejoin="bevel"/>
</svg>
